<svg
   xmlns="http://www.w3.org/2000/svg"
   version="1.1"
   width="48.000004"
   height="52">
  <g transform="translate(-140.07144,-390.75508)">
    <g transform="translate(66.428572,3.9285714)">
      <path
         d="m 97.642868,438.82651 -8,0 0,-2 0,-2 -2,0 -2,0 0,-2 0,-2 -2,0 -2,0 0,-2 0,-2 -2,0 -2,0 0,-2 0,-2 -2,0 -2,0 0,-10 0,-10 2,0 2,0 0,-2 0,-2 2,0 2,0 0,-2 0,-2 2,0 2,0 0,-2 0,-2 2,0 2,0 0,-2 0,-2 8,0 8.000002,0 0,2 0,2 2,0 2,0 0,2 0,2 2,0 2,0 0,2 0,2 2,0 2,0 0,2 0,2 2,0 2,0 0,10 0,10 -2,0 -2,0 0,2 0,2 -2,0 -2,0 0,2 0,2 -2,0 -2,0 0,2 0,2 -2,0 -2,0 0,2 0,2 -8.000002,0 z"
         style="fill:#d4af37"/>
      <path
         d="m 97.642868,438.82651 -8,0 0,-2 0,-2 -2,0 -2,0 0,-2 0,-2 -2,0 -2,0 0,-2 0,-2 -2,0 -2,0 0,-2 0,-2 -2,0 -2,0 0,-10 0,-10 2,0 2,0 0,-2 0,-2 2,0 2,0 0,-2 0,-2 2,0 2,0 0,-2 0,-2 2,0 2,0 0,-2 0,-2 8,0 8.000002,0 0,2 0,2 2,0 2,0 0,2 0,2 2,0 2,0 0,2 0,2 2,0 2,0 0,2 0,2 2,0 2,0 0,10 0,10 -2,0 -2,0 0,2 0,2 -2,0 -2,0 0,2 0,2 -2,0 -2,0 0,2 0,2 -2,0 -2,0 0,2 0,2 -8.000002,0 z m -6,-20 2,0 0,-6 0,-6 4,0 4.000002,0 0,-2 0,-2 -4.000002,0 -4,0 0,2 0,2 -2,0 -2,0 0,6 0,6 2,0 z"
         style="fill:#c49a2d"/>
      <path
         d="m 97.642868,438.82651 -8,0 0,-2 0,-2 -2,0 -2,0 0,-2 0,-2 -2,0 -2,0 0,-2 0,-2 -2,0 -2,0 0,-2 0,-2 -2,0 -2,0 0,-10 0,-10 2,0 2,0 0,-2 0,-2 2,0 2,0 0,-2 0,-2 2,0 2,0 0,-2 0,-2 2,0 2,0 0,-2 0,-2 8,0 8.000002,0 0,2 0,2 2,0 2,0 0,2 0,2 2,0 2,0 0,2 0,2 2,0 2,0 0,2 0,2 2,0 2,0 0,10 0,10 -2,0 -2,0 0,2 0,2 -2,0 -2,0 0,2 0,2 -2,0 -2,0 0,2 0,2 -2,0 -2,0 0,2 0,2 -8.000002,0 z m -18,-16 2,0 0,-8 0,-8 2,0 2,0 0,-2 0,-2 2,0 2,0 0,-2 0,-2 2,0 2,0 0,-2 0,-2 6,0 6.000002,0 0,-2 0,-2 -8.000002,0 -8,0 0,2 0,2 -2,0 -2,0 0,2 0,2 -2,0 -2,0 0,2 0,2 -2,0 -2,0 0,10 0,10 2,0 z m 12,-4 2,0 0,-2 0,-2 2,0 2,0 0,-2 0,-2 2,0 2.000002,0 0,-4 0,-4 -4.000002,0 -4,0 0,2 0,2 -2,0 -2,0 0,6 0,6 2,0 z"
         style="fill:#b8860b"/>
      <path
         d="m 97.642868,438.82651 -8,0 0,-2 0,-2 -2,0 -2,0 0,-2 0,-2 -2,0 -2,0 0,-2 0,-2 -2,0 -2,0 0,-2 0,-2 -2,0 -2,0 0,-10 0,-10 2,0 2,0 0,-2 0,-2 2,0 2,0 0,-2 0,-2 2,0 2,0 0,-2 0,-2 2,0 2,0 0,-2 0,-2 8,0 8.000002,0 0,2 0,2 2,0 2,0 0,2 0,2 2,0 2,0 0,2 0,2 2,0 2,0 0,2 0,2 2,0 2,0 0,10 0,10 -2,0 -2,0 0,2 0,2 -2,0 -2,0 0,2 0,2 -2,0 -2,0 0,2 0,2 -2,0 -2,0 0,2 0,2 -8.000002,0 z m -8,-12 8,0 0,-2 0,-2 -2,0 -2,0 0,-4 0,-4 2,0 2,0 0,-2 0,-2 2,0 2.000002,0 0,-2 0,-2 2,0 2,0 0,6 0,6 2,0 2,0 0,-12 0,-12 -2,0 -2,0 0,-2 0,-2 -8.000002,0 -8,0 0,2 0,2 -2,0 -2,0 0,2 0,2 -2,0 -2,0 0,2 0,2 -2,0 -2,0 0,10 0,10 2,0 2,0 0,2 0,2 8,0 z"
         style="fill:#996515"/>
      <path
         d="m 97.642868,438.82651 -8,0 0,-2 0,-2 -2,0 -2,0 0,-2 0,-2 -2,0 -2,0 0,-2 0,-2 -2,0 -2,0 0,-2 0,-2 -2,0 -2,0 0,-10 0,-10 2,0 2,0 0,-2 0,-2 2,0 2,0 0,-2 0,-2 2,0 2,0 0,-2 0,-2 2,0 2,0 0,-2 0,-2 8,0 8.000002,0 0,2 0,2 2,0 2,0 0,2 0,2 2,0 2,0 0,2 0,2 2,0 2,0 0,2 0,2 2,0 2,0 0,10 0,10 -2,0 -2,0 0,2 0,2 -2,0 -2,0 0,2 0,2 -2,0 -2,0 0,2 0,2 -2,0 -2,0 0,2 0,2 -8.000002,0 z m -2,-8 10.000002,0 0,-2 0,-2 2,0 2,0 0,-2 0,-2 2,0 2,0 0,-12 0,-12 -2,0 -2,0 0,-2 0,-2 -2,0 -2,0 0,-2 0,-2 -8.000002,0 -8,0 0,2 0,2 -2,0 -2,0 0,2 0,2 -2,0 -2,0 0,2 0,2 -2,0 -2,0 0,10 0,10 2,0 2,0 0,2 0,2 2,0 2,0 0,2 0,2 10,0 z m 2,-8 -4,0 0,-2 0,-2 4,0 4.000002,0 0,-6 0,-6 2,0 2,0 0,6 0,6 -2,0 -2,0 0,2 0,2 -4.000002,0 z"
         style="fill:#7c482b"/>
      <path
         d="m 97.642868,438.82651 -8,0 0,-2 0,-2 -2,0 -2,0 0,-2 0,-2 -2,0 -2,0 0,-2 0,-2 -2,0 -2,0 0,-2 0,-2 -2,0 -2,0 0,-10 0,-10 2,0 2,0 0,-2 0,-2 2,0 2,0 0,-2 0,-2 2,0 2,0 0,-2 0,-2 2,0 2,0 0,-2 0,-2 8,0 8.000002,0 0,2 0,2 2,0 2,0 0,2 0,2 2,0 2,0 0,2 0,2 2,0 2,0 0,2 0,2 2,0 2,0 0,10 0,10 -2,0 -2,0 0,2 0,2 -2,0 -2,0 0,2 0,2 -2,0 -2,0 0,2 0,2 -2,0 -2,0 0,2 0,2 -8.000002,0 z m 0,-4 8.000002,0 0,-2 0,-2 2,0 2,0 0,-2 0,-2 2,0 2,0 0,-2 0,-2 2,0 2,0 0,-10 0,-10 -2,0 -2,0 0,-2 0,-2 -2,0 -2,0 0,-2 0,-2 -2,0 -2,0 0,-2 0,-2 -8.000002,0 -8,0 0,2 0,2 -2,0 -2,0 0,2 0,2 -2,0 -2,0 0,2 0,2 -2,0 -2,0 0,10 0,10 2,0 2,0 0,2 0,2 2,0 2,0 0,2 0,2 2,0 2,0 0,2 0,2 8,0 z"
         style="fill:#5c3522"/>
    </g>
  </g>
</svg>
